<?xml version="1.0" encoding="UTF-8" standalone="no"?>
<!-- Created with Inkscape (http://www.inkscape.org/) -->

<svg
   width="52.916664mm"
   height="52.916664mm"
   viewBox="0 0 52.916664 52.916664"
   version="1.1"
   id="svg1"
   xml:space="preserve"
   xmlns="http://www.w3.org/2000/svg"
   xmlns:svg="http://www.w3.org/2000/svg"><defs
     id="defs1" /><g
     id="layer1"
     transform="translate(-186.89809,-321.63855)"><g
       id="g7"><path
         style="fill:#437692;fill-opacity:1;stroke-width:0.999998"
         d="m 194.59417,358.4306 c -1.66577,-0.70687 -3.21761,-1.59848 -4.28128,-3.14294 -1.75173,-1.88293 -2.82094,-4.35792 -2.74596,-6.95545 0.0677,-0.94162 -0.27789,-2.99545 0.8079,-3.11696 1.54754,-0.32556 2.66352,0.87366 4.0934,1.0633 2.90908,0.0771 5.53726,-1.7434 7.12753,-4.078 1.73582,-1.86649 3.54555,-3.93969 6.01301,-4.80396 2.167,-0.30817 4.61528,-0.20375 6.3347,1.29871 1.74312,1.03289 3.06587,-0.91845 4.70257,-1.12995 1.89501,-0.78238 3.80258,-0.49299 5.67202,0.20749 1.72683,0.27171 2.88207,2.14937 3.72011,2.95409 1.4544,1.62547 3.10906,3.9152 5.42266,4.96005 2.07527,1.13285 4.39318,0.39783 6.37265,-0.51289 1.94138,0.51629 1.18982,4.47575 1.09092,5.22953 -0.20895,1.93371 -1.26561,3.37406 -2.23541,4.90979 -1.28554,1.45657 -3.00842,2.43562 -4.79008,3.16398 -2.19804,0.84406 -4.67803,0.65276 -6.97993,0.38016 -1.67546,-0.59675 -3.44648,-1.21969 -4.84868,-2.36883 -2.2325,-1.28196 -3.75769,-3.56531 -6.12248,-4.63751 -1.99572,-0.54496 -2.96203,1.79412 -4.49625,2.59098 -1.64137,1.10101 -2.71431,2.49495 -4.96364,3.27051 -2.17094,1.71358 -7.54552,1.69037 -9.89376,0.7179 z m 6.4985,-1.85957 c 1.70857,-0.57516 3.46644,-1.28578 4.94418,-2.37637 1.71917,-1.34719 3.34534,-2.82128 5.15688,-4.03612 0.88094,-1.02614 2.4048,-0.48697 3.60732,-0.6117 0.63653,0.0972 1.02965,0.83725 1.57214,1.18283 2.17827,1.83113 4.23485,3.92858 6.8847,5.06448 1.93248,1.18033 4.36318,0.95589 6.53801,0.86946 1.82532,-0.21186 3.52314,-1.23852 4.9056,-2.40288 1.28705,-1.22132 2.43654,-4.5712 2.25716,-5.21574 -0.19029,-1.07864 -2.99504,-0.25421 -4.58617,-0.74944 -3.06015,-0.62126 -5.5625,-2.73178 -7.26538,-5.27479 -1.58368,-2.10529 -4.09532,-4.05484 -6.89072,-3.39197 -2.13524,-0.0559 -3.26255,2.35623 -5.40994,2.02857 -1.58662,-0.51107 -2.68514,-1.96154 -4.44688,-2.34795 -1.80765,-0.90783 -3.61211,0.93932 -4.9685,1.9677 -2.05726,1.97046 -3.5703,4.60019 -6.18237,5.9372 -1.76208,0.8187 -3.59642,1.46225 -5.57368,1.42148 -2.34906,-0.0168 -1.24123,2.91402 -0.42227,4.18306 0.92566,1.89027 2.762,2.66434 4.50475,3.55032 1.74375,0.47085 3.59672,0.43556 5.37517,0.20186 z"
         id="path4" /><rect
         style="fill:#000000;fill-opacity:0;stroke:none;stroke-width:0.264583;stroke-linecap:round;stroke-dasharray:none;stroke-opacity:1"
         id="rect4"
         width="52.916664"
         height="52.916664"
         x="186.89809"
         y="321.63855" /></g></g></svg>
