<?xml version="1.0" encoding="UTF-8" standalone="no"?>
<!-- Created with Inkscape (http://www.inkscape.org/) -->

<svg
   width="52.916664mm"
   height="52.916664mm"
   viewBox="0 0 52.916664 52.916664"
   version="1.1"
   id="svg1"
   xml:space="preserve"
   xmlns="http://www.w3.org/2000/svg"
   xmlns:svg="http://www.w3.org/2000/svg"><defs
     id="defs1" /><g
     id="layer1"
     transform="translate(-124.23652,-321.63855)"><g
       id="g6"><path
         style="fill:#437692;fill-opacity:1"
         d="m 130.79744,367.72968 c -0.81717,-1.91422 0.72235,-3.95445 1.08771,-5.86317 0.76971,-2.21952 1.3439,-4.55064 2.16879,-6.73276 8.28887,-8.28234 16.47207,-16.67202 24.8554,-24.85859 1.65921,-1.64668 3.27287,-2.28085 6.31806,-2.08639 1.49507,0.19632 3.29309,1.26256 4.29466,2.83992 1.3661,1.60261 1.77873,3.99105 0.66689,5.83505 -2.43205,3.84336 -6.00515,6.77014 -9.13109,10.02463 -6.03488,5.89118 -11.99253,11.87167 -18.21817,17.56056 -1.54569,0.95793 -3.25759,1.15319 -4.97906,1.81919 l -4.9756,1.60556 c -0.66353,0.15942 -1.5076,0.32897 -2.08759,-0.144 z m 5.64549,-3.156 c 0.8256,-0.34176 4.75306,-0.50816 4.57328,-2.91835 -0.66935,-1.79274 -2.10672,-3.39786 -3.82567,-4.24325 -2.21026,-0.14372 -2.32429,2.87196 -2.99963,4.39928 -0.85088,2.01183 -1.70162,4.29699 2.25202,2.76232 z m 17.91624,-14.32233 c 3.186,-3.24694 6.6196,-6.27322 9.53321,-9.77457 1.58503,-1.59435 -0.37937,-3.37341 -1.40401,-4.63208 -1.22562,-1.57608 -3.83079,-2.81594 -5.18024,-0.68396 -5.32193,5.02354 -10.40104,10.2986 -15.61675,15.43171 -0.93414,1.6282 -4.27584,2.86784 -3.35915,4.86324 1.82247,1.18173 3.28129,2.79019 4.69681,4.41549 1.57909,0.99276 2.93399,-1.99102 4.342,-2.82679 2.3506,-2.24237 4.67509,-4.512 6.98813,-6.79304 z m 13.69873,-14.02031 c 1.2222,-2.28119 -0.32777,-5.29172 -2.84488,-5.73942 -1.83156,-0.84084 -5.84075,0.90384 -2.7221,2.49599 1.66928,1.00779 2.85406,2.59271 3.81217,4.2334 0.75853,0.62185 1.49357,-0.35558 1.75481,-0.98997 z"
         id="path1" /><rect
         style="fill:#000000;fill-opacity:0;stroke:none;stroke-width:0.264583;stroke-linecap:round;stroke-dasharray:none;stroke-opacity:1"
         id="rect3"
         width="52.916664"
         height="52.916664"
         x="124.23652"
         y="321.63855" /></g></g></svg>
