<?xml version="1.0" encoding="UTF-8" standalone="no"?>
<!-- Created with Inkscape (http://www.inkscape.org/) -->

<svg
   width="52.916664mm"
   height="52.916664mm"
   viewBox="0 0 52.916664 52.916664"
   version="1.1"
   id="svg1"
   xml:space="preserve"
   xmlns="http://www.w3.org/2000/svg"
   xmlns:svg="http://www.w3.org/2000/svg"><defs
     id="defs1" /><g
     id="layer1"
     transform="translate(-62.299362,-321.63855)"><g
       id="g5"><path
         style="fill:#437692;fill-opacity:1"
         d="m 77.463927,362.79209 c -0.160824,-8.73246 -0.0787,-17.46826 -0.06398,-26.20182 0.09679,-2.21894 -0.102333,-4.51799 0.590856,-6.6554 0.570387,-1.02663 1.623224,-1.89763 2.691124,-2.06943 5.276172,-0.003 10.597622,0.0156 15.873792,0.0126 2.66754,0.3007 3.761471,3.25763 3.573091,4.73252 v 32.27204 c -0.150511,1.31666 0.0835,3.41561 -2.186991,3.30291 -3.36783,0.0259 -7.09989,0.0762 -10.51538,0.14315 l -7.802845,-0.006 c -2.572933,-0.59783 -1.987272,-3.33261 -2.159667,-5.53061 z m 19.742692,3.43142 c 0.57767,-0.005 0.37294,-3.37333 0.49441,-4.94832 0.0538,-9.94917 0.0147,-19.89863 0.0221,-29.84793 -0.27398,-0.88696 -0.82462,-1.27137 -1.76946,-1.32292 -5.11546,0.0534 -14.20053,-0.33138 -15.346394,0.16007 -0.731599,0.34762 -0.474238,1.92139 -0.60552,2.99262 -0.358506,9.82205 -0.430118,19.72138 -0.218825,29.54736 0.165321,1.35426 -0.52319,3.48318 1.758173,3.46915 5.221836,-0.0167 13.422176,0.0939 15.665516,-0.05 z m -9.89737,-1.8998 c -1.98626,-1.35073 -0.95208,-4.2875 1.26481,-4.1176 2.21526,-0.17222 3.10656,2.74196 1.50514,3.93711 -0.57656,0.56991 -1.94908,0.68249 -2.76995,0.18049 z m 3.56419,-32.24254 c 1.93489,-0.11673 2.12641,2.25527 0.082,2.33252 -2.29806,0.0868 -2.28815,-0.006 -4.39087,-0.0157 -2.01933,0.0474 -2.15873,-2.45769 -0.0602,-2.33942 z"
         id="path2" /><rect
         style="fill:#000000;fill-opacity:0;stroke:none;stroke-width:0.264583;stroke-linecap:round;stroke-dasharray:none;stroke-opacity:1"
         id="rect2"
         width="52.916664"
         height="52.916664"
         x="62.299362"
         y="321.63855" /></g></g></svg>
