<?xml version="1.0" encoding="UTF-8" standalone="no"?>
<!-- Created with Inkscape (http://www.inkscape.org/) -->

<svg
   width="25mm"
   height="24.974155mm"
   viewBox="0 0 25 24.974155"
   version="1.1"
   id="svg1"
   xml:space="preserve"
   xmlns:inkscape="http://www.inkscape.org/namespaces/inkscape"
   xmlns:sodipodi="http://sodipodi.sourceforge.net/DTD/sodipodi-0.dtd"
   xmlns="http://www.w3.org/2000/svg"
   xmlns:svg="http://www.w3.org/2000/svg"><sodipodi:namedview
     id="namedview1"
     pagecolor="#ffffff"
     bordercolor="#666666"
     borderopacity="1.0"
     inkscape:showpageshadow="2"
     inkscape:pageopacity="0.0"
     inkscape:pagecheckerboard="0"
     inkscape:deskcolor="#d1d1d1"
     inkscape:document-units="mm" /><defs
     id="defs1" /><g
     inkscape:label="Layer 1"
     inkscape:groupmode="layer"
     id="layer1"
     transform="translate(-92.752497,-148.69949)"><path
       style="fill:#ffffff;stroke-width:0.999997"
       d="m 102.07951,173.28378 c -3.106314,-0.81424 -6.08305,-3.02943 -7.63926,-5.68491 -2.699462,-4.60628 -2.111551,-10.74734 1.411308,-14.7419 1.395171,-1.58197 2.781171,-2.52162 5.060012,-3.43045 1.5404,-0.61434 2.1933,-0.72494 4.29162,-0.72702 3.70329,-0.004 6.62308,1.18644 9.00958,3.67226 4.1056,4.27651 4.70965,10.87654 1.44552,15.79417 -2.85861,4.30667 -8.52535,6.44246 -13.57878,5.11785 z m 5.57108,-2.32541 c 3.15373,-0.82143 5.65743,-2.91499 6.94146,-5.75298 1.20603,-2.66561 0.83216,-6.90136 -0.68437,-9.38766 -1.86976,-3.06541 -2.78201,-3.15567 -4.38841,-3.90815 -1.7137,-0.80274 -5.18741,-1.03656 -7.22671,-0.44372 -2.969343,0.86321 -5.693996,3.46179 -6.602373,6.29686 -0.702065,2.19117 -0.637626,5.21472 0.154167,7.23371 0.655804,1.67224 2.880028,4.26729 4.288586,5.00358 2.49086,1.30205 4.97993,1.61936 7.51765,0.95836 z m 0.88387,-3.74731 c -0.54315,-0.46416 -1.36668,-0.88803 -2.23686,-1.08276 -1.46488,-0.32784 -1.95062,-0.81319 -1.71512,-1.71376 0.18142,-0.69375 0.79547,-0.84018 2.32501,-0.55443 1.32476,0.24749 2.14865,0.68384 3.28271,1.73857 0.80638,0.74997 0.96427,1.44551 0.30589,1.97565 -0.58666,0.4724 -1.00676,0.45274 -1.96163,-0.36327 z m -8.3091,0.11801 c -0.377424,-0.20503 -0.807123,-0.71962 -0.954894,-1.14351 -0.223516,-0.64118 -0.161738,-0.98531 0.367559,-2.04747 0.349933,-0.70222 0.855545,-1.47523 1.123575,-1.71779 0.46391,-0.41984 0.51933,-0.39912 1.15224,0.43068 1.58809,2.08208 1.70315,3.84821 0.15042,4.49023 -0.90794,0.37541 -0.99571,0.32906 -1.8389,-0.0122 z m 0.21417,-7.3042 c -0.458368,-0.23986 -0.647511,-0.71235 -0.645731,-1.32917 0.0036,-1.25834 1.310541,-1.67888 2.126031,-1.26846 1.05102,0.52896 1.10218,2.12306 0.0766,2.59056 -0.63877,0.29118 -0.95376,0.28261 -1.55691,0.006 z m 7.77945,-0.30359 c -0.57756,-0.63821 -0.54161,-1.48964 0.0896,-2.12079 0.74173,-0.57337 1.47446,-0.5286 2.00989,-0.0468 0.4886,0.43971 0.71438,1.22286 0.18151,2.0653 -0.46482,0.73486 -1.68097,0.76517 -2.28094,0.10221 z"
       id="path7"
       sodipodi:nodetypes="sssscssssssssssssssssssscssssscccsssccccsscc" /></g></svg>
