<?xml version="1.0" encoding="UTF-8" standalone="no"?>
<!-- Created with Inkscape (http://www.inkscape.org/) -->

<svg
   width="24.999996mm"
   height="25.089878mm"
   viewBox="0 0 24.999996 25.089878"
   version="1.1"
   id="svg1"
   xml:space="preserve"
   xmlns:inkscape="http://www.inkscape.org/namespaces/inkscape"
   xmlns:sodipodi="http://sodipodi.sourceforge.net/DTD/sodipodi-0.dtd"
   xmlns="http://www.w3.org/2000/svg"
   xmlns:svg="http://www.w3.org/2000/svg"><sodipodi:namedview
     id="namedview1"
     pagecolor="#ffffff"
     bordercolor="#666666"
     borderopacity="1.0"
     inkscape:showpageshadow="2"
     inkscape:pageopacity="0.0"
     inkscape:pagecheckerboard="0"
     inkscape:deskcolor="#d1d1d1"
     inkscape:document-units="mm" /><defs
     id="defs1" /><g
     inkscape:label="Layer 1"
     inkscape:groupmode="layer"
     id="layer1"
     transform="translate(-56.09353,-108.82681)"><path
       style="fill:#ffffff;stroke-width:1"
       d="m 66.648831,133.76161 c -5.540322,-0.8648 -9.792522,-5.17172 -10.446467,-10.58092 -0.689067,-5.6997 1.929581,-10.70127 6.839161,-13.06269 8.460684,-4.06943 18.095669,1.96589 18.051852,11.30762 -0.03625,7.72675 -6.825818,13.52522 -14.444546,12.33599 z m 4.602595,-3.85468 c 2.496133,-0.83845 4.566981,-2.77359 4.566981,-4.26766 0,-0.4344 -0.145848,-0.8458 -0.324105,-0.9142 -0.178257,-0.0684 -1.042548,0.045 -1.920654,0.25194 -2.138373,0.50402 -8.038844,0.51112 -9.898734,0.0119 -1.79589,-0.48204 -2.167336,-0.46532 -2.348576,0.10572 -0.336385,1.05986 1.193705,3.21375 2.947352,4.14897 2.04536,1.09078 4.897915,1.36196 6.977736,0.66333 z m -8.704171,-10.20709 c 0.239387,-0.75424 1.304764,-1.58811 2.029024,-1.58811 0.643061,0 1.046448,0.3396 1.975019,1.66274 0.565197,0.80535 0.933719,0.15951 0.60518,-1.06059 -0.525117,-1.95013 -2.31029,-3.03445 -3.737907,-2.27041 -0.64995,0.34784 -1.726268,2.25141 -1.726268,3.05308 0,0.76262 0.62989,0.9124 0.854952,0.20329 z m 8.52878,-0.52533 c 1.327341,-1.44627 2.209831,-1.44671 3.166159,-0.002 0.76402,1.1545 1.239566,1.16002 1.124468,0.013 -0.27892,-2.77942 -2.970882,-3.94253 -4.561464,-1.97087 -0.674896,0.83659 -1.258121,2.94122 -0.815059,2.94122 0.101656,0 0.590306,-0.44181 1.085896,-0.98179 z"
       id="path10" /></g></svg>
