<?xml version="1.0" encoding="UTF-8" standalone="no"?>
<!-- Created with Inkscape (http://www.inkscape.org/) -->

<svg
   width="25mm"
   height="25.138mm"
   viewBox="0 0 25 25.138"
   version="1.1"
   id="svg1"
   xml:space="preserve"
   xmlns:inkscape="http://www.inkscape.org/namespaces/inkscape"
   xmlns:sodipodi="http://sodipodi.sourceforge.net/DTD/sodipodi-0.dtd"
   xmlns="http://www.w3.org/2000/svg"
   xmlns:svg="http://www.w3.org/2000/svg"><sodipodi:namedview
     id="namedview1"
     pagecolor="#ffffff"
     bordercolor="#666666"
     borderopacity="1.0"
     inkscape:showpageshadow="2"
     inkscape:pageopacity="0.0"
     inkscape:pagecheckerboard="0"
     inkscape:deskcolor="#d1d1d1"
     inkscape:document-units="mm" /><defs
     id="defs1" /><g
     inkscape:label="Layer 1"
     inkscape:groupmode="layer"
     id="layer1"
     transform="translate(-56.730176,-148.29982)"><path
       style="fill:#ffffff;stroke-width:1"
       d="m 67.463826,173.3153 c -5.640749,-0.86128 -9.800354,-5.03141 -10.588151,-10.61494 -0.593686,-4.20775 0.637263,-7.95357 3.550446,-10.80412 3.89858,-3.81476 9.53008,-4.66856 14.55714,-2.20704 7.465378,3.65544 9.086687,14.19516 3.091163,20.0947 -2.738846,2.69501 -6.937211,4.09229 -10.610598,3.5314 z m 6.35541,-3.42152 c 2.044741,-1.00663 3.667967,-2.68362 4.697524,-4.85313 0.606922,-1.27894 0.905569,-2.60179 0.905569,-4.16235 0,-1.53207 -0.294357,-2.83292 -0.961979,-4.27747 -0.960076,-2.07737 -3.025538,-4.12813 -5.121551,-5.08511 -2.163586,-0.98783 -5.607892,-1.03985 -7.954504,-0.12012 -2.215581,0.86835 -4.734326,3.36663 -5.545277,5.50021 -2.127204,5.59657 0.517287,11.59421 5.969092,13.53777 1.059098,0.37756 1.96553,0.47515 3.819241,0.41117 2.105228,-0.0727 2.666318,-0.19994 4.191885,-0.95097 z m -10.012134,-2.85699 c -0.162997,-0.60374 -0.153736,-0.77168 0.595002,-1.60516 1.967968,-2.1907 5.331375,-2.65609 7.895501,-1.30278 1.387021,0.73205 2.484412,1.84132 2.500329,2.52741 0.02523,1.08905 -1.45642,1.40899 -2.285015,0.4934 -1.584227,-1.75057 -5.070238,-1.75558 -6.625983,-0.009 -0.705137,0.7914 -1.694564,0.74223 -2.079834,-0.10336 z m 0.378094,-7.48568 c -0.740997,-0.51903 -0.835649,-1.62083 -0.05945,-2.25474 0.742902,-0.60671 1.396421,-0.60428 2.162652,0.0396 0.530719,0.44597 0.410296,0.91539 0.363888,1.36678 -0.109336,1.06347 -1.307814,1.49823 -2.467122,0.84831 z m 8.126812,-0.0727 c -0.723489,-0.5348 -0.581046,-1.83837 0.151556,-2.30047 0.575821,-0.36321 1.298228,-0.49155 1.94098,0.0856 0.745674,0.66958 0.649069,1.76781 -0.07467,2.31068 -0.618777,0.46415 -1.665763,0.36145 -2.017864,-0.0958 z"
       id="path8"
       sodipodi:nodetypes="sssssssssssssscscssssccccssscccssscc" /></g></svg>
