<?xml version="1.0" encoding="UTF-8" standalone="no"?>
<!-- Created with Inkscape (http://www.inkscape.org/) -->

<svg
   width="25mm"
   height="25.071903mm"
   viewBox="0 0 25 25.071903"
   version="1.1"
   id="svg1"
   xml:space="preserve"
   xmlns:inkscape="http://www.inkscape.org/namespaces/inkscape"
   xmlns:sodipodi="http://sodipodi.sourceforge.net/DTD/sodipodi-0.dtd"
   xmlns="http://www.w3.org/2000/svg"
   xmlns:svg="http://www.w3.org/2000/svg"><sodipodi:namedview
     id="namedview1"
     pagecolor="#ffffff"
     bordercolor="#666666"
     borderopacity="1.0"
     inkscape:showpageshadow="2"
     inkscape:pageopacity="0.0"
     inkscape:pagecheckerboard="0"
     inkscape:deskcolor="#d1d1d1"
     inkscape:document-units="mm" /><defs
     id="defs1" /><g
     inkscape:label="Layer 1"
     inkscape:groupmode="layer"
     id="layer1"
     transform="translate(-125.21086,-148.98638)"><path
       style="fill:#ffffff;stroke-width:0.999999"
       d="m 135.77821,173.93178 c -6.10929,-0.96499 -10.56735,-6.11643 -10.56735,-12.21092 0,-5.06888 2.56428,-9.32755 6.85832,-11.39009 5.03191,-2.41696 10.59654,-1.53015 14.42562,2.29893 3.92625,3.92625 4.82525,9.71185 2.29498,14.76957 -0.96287,1.92466 -3.27326,4.31867 -5.00858,5.18984 -2.40159,1.20567 -5.5385,1.73194 -8.00299,1.34267 z m 5.11884,-5.79781 c 0.66275,-0.27852 1.58372,-0.89712 2.04659,-1.37469 1.53461,-1.58331 0.47763,-2.66095 -1.18131,-1.20439 -2.42855,2.1323 -5.71563,2.12231 -8.16204,-0.0248 -1.53966,-1.35129 -2.57924,-0.3425 -1.17294,1.1382 2.01202,2.11844 5.48588,2.71959 8.4697,1.46569 z m -6.18117,-7.92662 c 0.55125,-0.55125 0.67159,-1.76074 -0.0466,-2.35783 -1.0199,-0.84792 -2.67446,-0.0746 -2.67446,1.20232 0,1.30673 1.80382,2.07274 2.72105,1.15551 z m 8.43427,-0.4139 c 0.69899,-1.46591 -0.71821,-2.81437 -2.15162,-2.04723 -1.00136,0.53591 -1.01664,1.9949 -0.028,2.6782 0.62186,0.42983 1.8423,0.0765 2.17967,-0.63097 z"
       id="path9"
       sodipodi:nodetypes="ssssssssssssssssssscsscc" /></g></svg>
