<?xml version="1.0" encoding="UTF-8" standalone="no"?>
<!-- Created with Inkscape (http://www.inkscape.org/) -->

<svg
   width="25.000065mm"
   height="25.001413mm"
   viewBox="0 0 25.000065 25.001413"
   version="1.1"
   id="svg1"
   xml:space="preserve"
   xmlns:inkscape="http://www.inkscape.org/namespaces/inkscape"
   xmlns:sodipodi="http://sodipodi.sourceforge.net/DTD/sodipodi-0.dtd"
   xmlns="http://www.w3.org/2000/svg"
   xmlns:svg="http://www.w3.org/2000/svg"><sodipodi:namedview
     id="namedview1"
     pagecolor="#ffffff"
     bordercolor="#666666"
     borderopacity="1.0"
     inkscape:showpageshadow="2"
     inkscape:pageopacity="0.0"
     inkscape:pagecheckerboard="0"
     inkscape:deskcolor="#d1d1d1"
     inkscape:document-units="mm" /><defs
     id="defs1" /><g
     inkscape:label="Layer 1"
     inkscape:groupmode="layer"
     id="layer1"
     transform="translate(-132.603,-112.92646)"><path
       style="fill:#ffffff;stroke-width:0.999999"
       d="m 142.48868,137.68649 c -4.84398,-0.91706 -8.90064,-5.18254 -9.71771,-10.21795 -1.48853,-9.17351 7.16711,-16.72472 16.00803,-13.96546 4.75678,1.4846 8.00613,5.29779 8.68722,10.19466 0.36724,2.64038 0.009,4.76323 -1.24136,7.3454 -2.44983,5.06134 -7.97576,7.7339 -13.73618,6.64335 z m 5.53548,-2.57529 c 0.69193,-0.19121 1.61189,-0.53097 2.04451,-0.75467 1.4409,-0.74506 3.52428,-2.99544 4.2195,-4.66585 0.64142,-1.54116 0.89666,-2.55735 0.9113,-4.16455 0.0157,-1.72622 -0.74514,-4.93841 -3.00069,-7.19397 -2.27207,-2.27207 -3.76688,-2.86833 -7.19397,-2.8696 -2.30844,-8.5e-4 -2.65112,0.0644 -4.15161,0.79074 -2.7133,1.31341 -4.82659,3.79412 -5.49563,6.45112 -0.57484,2.28285 -0.23556,5.65528 0.75446,7.49948 0.67753,1.26209 2.54604,3.26746 3.64401,3.91092 2.20828,1.29414 5.67763,1.71222 8.26812,0.99638 z m -5.32601,-2.86445 c -1.67387,-0.5983 -3.02739,-1.63854 -3.54539,-2.72478 -0.37642,-0.78938 -0.37702,-0.89396 -0.008,-1.26374 0.35441,-0.35442 0.56556,-0.36366 1.74734,-0.0765 1.69653,0.41232 6.42121,0.41552 8.33896,0.006 1.66218,-0.35525 2.23343,-0.12388 1.99403,0.8076 -0.68344,2.65917 -5.2809,4.41222 -8.52771,3.2517 z m -1.99049,-7.33693 c -2.58072,-0.76277 -2.80788,-1.76006 -2.76708,-2.66824 0.0299,-0.66545 0.96892,-1.80205 2.04434,-1.37028 0.37504,0.15057 0.78524,-0.15748 1.1158,-0.67082 0.44987,-0.69865 0.81551,-0.78233 1.5565,-0.74225 0.85269,0.0461 1.53613,0.6161 1.40251,1.90653 -0.065,0.62811 -0.31163,1.79306 -0.54799,2.58878 -0.48647,1.63778 -0.49196,1.63966 -2.80408,0.95628 z m 6.32805,0.26801 c -0.0756,-0.12237 -0.3627,-1.16535 -0.63794,-2.31774 -0.44287,-1.85423 -0.45848,-2.15929 -0.13566,-2.65197 0.7371,-1.12497 2.33141,-1.07305 3.02436,0.0985 0.28601,0.48354 0.63985,0.70714 1.18056,0.74601 1.37216,0.0986 2.17846,1.22514 1.72695,2.4127 -0.20112,0.52897 -0.61946,0.7655 -2.28391,1.2913 -2.20423,0.69632 -2.66281,0.76351 -2.87436,0.42122 z"
       id="path11"
       sodipodi:nodetypes="sssscsssssssssssscscccsccssssscsssssscssss" /></g></svg>
