<?xml version="1.0" encoding="UTF-8" standalone="no"?>
<!-- Created with Inkscape (http://www.inkscape.org/) -->

<svg
   width="52.916664mm"
   height="52.916664mm"
   viewBox="0 0 52.916664 52.916664"
   version="1.1"
   id="svg1"
   xml:space="preserve"
   xmlns="http://www.w3.org/2000/svg"
   xmlns:svg="http://www.w3.org/2000/svg"><defs
     id="defs1" /><g
     id="layer1"
     transform="translate(0.72441208,-321.63855)"><g
       id="g4"><path
         style="fill:#437692;fill-opacity:1"
         d="m 19.225035,367.72029 c -2.006005,-0.79327 -3.880005,-2.10544 -6.132442,-2.04317 -1.822946,-0.23366 -4.5611938,0.20203 -5.5005328,-1.83313 -1.175572,-2.19959 -1.87423,-4.58326 -1.772499,-7.12144 0.0142,-3.40808 -0.123325,-7.13013 1.747977,-10.13183 1.259601,-1.43013 3.5570058,-0.74561 4.9588318,-2.11615 3.284335,-2.22878 5.764984,-5.23667 7.864329,-8.55871 1.176906,-2.06506 2.254033,-4.19915 3.076598,-6.42313 1.165526,-2.03896 4.004404,-1.38778 5.339285,0.10922 2.190763,2.36875 1.734918,5.88487 1.56604,8.85325 -0.389409,1.71276 -0.08837,3.88074 2.013989,3.81929 2.990476,0.046 8.494625,0.0578 8.972702,0.16974 0.806806,0.0924 2.918501,1.60011 2.932995,3.3717 -0.554994,2.36157 0.281615,3.79472 1.307764,5.74321 0.459824,1.98734 -1.985864,3.84392 -1.338697,5.804 0.322334,1.78531 -0.814334,3.28189 -2.091823,4.34485 -0.226122,2.07651 -0.432614,4.06075 -3.469544,5.24226 -1.889208,0.78773 -3.93448,0.80079 -5.96345,0.89306 -4.48427,0.0981 -9.042439,0.32275 -13.511523,-0.12303 z m 18.901125,-2.58997 c 2.0165,-0.54505 2.516299,-2.25823 2.014971,-3.87142 1.021045,-1.42727 3.118322,-2.45336 2.103599,-4.67082 -0.791303,-1.96358 2.764934,-3.22353 1.223373,-5.29811 -0.238104,-0.84412 -1.647983,-1.33854 -1.476694,-2.20745 0.359337,-1.22864 1.240272,-2.60853 0.225459,-3.77337 -1.211366,-1.53881 -3.539347,-0.88928 -5.249531,-1.11275 -2.820727,-0.10242 -5.669734,0.17062 -8.469729,-0.23354 -2.302271,-0.97169 -0.206468,-3.86457 -0.144734,-5.64257 0.371171,-2.37323 0.81266,-5.15966 -0.635078,-7.26395 -2.054387,-1.88353 -3.175795,1.57981 -3.9444,3.1113 -1.651686,3.13926 -3.595558,6.07766 -5.984554,8.7268 -1.853113,1.67003 -3.828271,3.24521 -6.047803,4.37834 -1.8470748,0.5455 -3.3967458,1.16897 -3.7618718,3.65983 -0.287159,2.58317 -0.724068,6.5867 0.412685,10.07567 0.330408,1.9786 2.4879718,2.56152 4.2033228,2.63225 2.460341,0.0903 4.805376,0.93273 6.887255,2.21071 3.373664,0.44037 6.803747,0.12755 10.201478,0.15901 2.8223,-0.19481 5.796836,0.25822 8.442252,-0.87993 z"
         id="path3" /><rect
         style="fill:#000000;fill-opacity:0;stroke:none;stroke-width:0.264583;stroke-linecap:round;stroke-dasharray:none;stroke-opacity:1"
         id="rect1"
         width="52.916664"
         height="52.916664"
         x="-0.72441208"
         y="321.63855" /></g></g></svg>
